<svg width="23" height="23" viewBox="0 0 23 23" fill="none" xmlns="http://www.w3.org/2000/svg">
<path fill-rule="evenodd" clip-rule="evenodd" d="M11.5 2.5C6.52944 2.5 2.5 6.52944 2.5 11.5C2.5 16.4706 6.52944 20.5 11.5 20.5C16.4706 20.5 20.5 16.4706 20.5 11.5C20.5 6.52944 16.4706 2.5 11.5 2.5ZM0.5 11.5C0.5 5.42487 5.42487 0.5 11.5 0.5C17.5751 0.5 22.5 5.42487 22.5 11.5C22.5 17.5751 17.5751 22.5 11.5 22.5C5.42487 22.5 0.5 17.5751 0.5 11.5Z" fill="#EA202A"/>
<path d="M5.79289 12.2071C5.40237 11.8166 5.40237 11.1834 5.79289 10.7929C6.18342 10.4024 6.81658 10.4024 7.20711 10.7929L10.5 14.0858L10.5 7.5C10.5 6.94772 10.9477 6.5 11.5 6.5C12.0523 6.5 12.5 6.94772 12.5 7.5V14.0858L15.7929 10.7929C16.1834 10.4024 16.8166 10.4024 17.2071 10.7929C17.5976 11.1834 17.5976 11.8166 17.2071 12.2071L12.2083 17.2059C12.2043 17.21 12.2002 17.214 12.1961 17.218C12.0167 17.3919 11.7724 17.4992 11.503 17.5L11.5 17.5L11.497 17.5C11.3625 17.4996 11.2343 17.4727 11.1172 17.4241C10.9993 17.3753 10.8888 17.303 10.7929 17.2071L5.79289 12.2071Z" fill="#EA202A"/>
</svg>
