<svg width="181" height="186" viewBox="0 0 181 186" fill="none" xmlns="http://www.w3.org/2000/svg">
<path d="M172.539 96.2159C180.006 91.5865 182.377 85.9119 179.502 79.4159C178.626 77.6133 177.335 76.0441 175.736 74.837C174.136 73.6299 172.273 72.8194 170.299 72.4719C166.977 71.7625 160.313 71.5759 153.201 78.0719C145.585 85.0719 143.867 93.1545 148.161 102.077C151.278 108.592 152.323 114.453 150.886 117.347C150.397 118.142 149.728 118.813 148.935 119.306C148.141 119.798 147.243 120.099 146.313 120.184C135.281 122.536 126.713 110.048 125.779 108.76L124.939 106.893C119.339 93.8265 123.073 86.8825 124.939 84.4932C127.049 81.7305 145.473 72.9945 152.547 69.6905L152.79 69.5785C156.299 67.9172 159.323 66.4985 161.339 65.4532L162.683 64.7812C168.694 61.7199 176.945 57.5199 174.555 46.8985C174.521 46.5791 174.446 46.2654 174.331 45.9652C173.821 44.0881 173.12 42.268 172.241 40.5332C171.527 39.0529 170.595 37.6877 169.478 36.4825L169.329 36.3332C160.947 27.6905 147.731 33.6079 137.091 38.3865C135.635 39.0399 134.217 39.6745 132.835 40.2532C125.271 43.2331 117.558 45.8188 109.726 47.9999C109.618 46.1619 109.343 44.3375 108.905 42.5492C108.689 41.766 108.293 41.0441 107.748 40.4412C107.204 39.8384 106.526 39.3713 105.769 39.0772C103.604 38.2725 101.567 37.1597 99.7206 35.7732C99.7206 35.4372 99.5712 35.0826 99.4779 34.6905V34.4105C99.3099 33.6452 99.1046 32.6745 98.8246 31.6105C100.35 31.4006 101.766 30.7011 102.861 29.6172C103.955 28.5333 104.667 27.1235 104.891 25.5999C105.215 24.2439 105.227 22.8323 104.926 21.4712C104.625 20.11 104.02 18.8347 103.155 17.7412C102.429 16.9173 101.527 16.2667 100.516 15.837C99.5045 15.4074 98.41 15.2097 97.3126 15.2585C94.7345 15.3854 92.2663 16.3413 90.2752 17.9839C88.9085 16.7415 87.4686 15.5821 85.9632 14.5119C84.5509 11.737 82.6904 9.21422 80.4566 7.04521C77.8112 4.5331 74.6092 2.68238 71.1119 1.64423C67.6147 0.606085 63.9214 0.409961 60.3339 1.07188C56.8619 1.72521 54.7339 3.05055 53.7446 5.12255C53.3339 6.01855 52.5312 8.70655 51.8779 11.0025C50.0112 11.0025 47.7339 11.0025 45.1392 11.3012C39.5389 11.7617 34.2151 13.9315 29.8886 17.5172C29.2841 18.0581 28.8154 18.7337 28.5203 19.4892C28.2252 20.2448 28.1121 21.0592 28.1899 21.8665C27.4071 22.4699 26.6822 23.1448 26.0246 23.8825C24.8299 23.4159 23.5606 22.9679 22.2912 22.5572C19.2107 21.549 15.9323 21.2991 12.7346 21.8288C9.53681 22.3585 6.51412 23.6522 3.92324 25.5999C-3.13276 31.3492 3.4939 41.1679 6.66724 45.8905C8.40676 48.2775 10.518 50.3699 12.9206 52.0879C12.9206 52.9652 12.9206 53.9545 12.9206 55.3172C12.9206 57.1839 13.0512 58.9199 13.1072 60.3759C5.64057 66.8905 5.08057 67.9919 4.76324 69.7092C4.55706 71.1898 4.66519 72.6972 5.08057 74.1332C5.37924 75.5705 6.06991 78.8559 9.18724 79.8639L10.1952 81.7305C9.21892 83.3919 8.67947 85.2736 8.62724 87.1999C8.67557 90.5493 9.49767 93.8422 11.0293 96.8213C12.561 99.8004 14.7607 102.385 17.4566 104.373C20.0268 106.166 22.9483 107.392 26.0278 107.971C29.1073 108.55 32.2747 108.469 35.3206 107.733C35.3206 109.469 35.3206 111.84 35.3206 114.715C34.0122 116.973 32.453 119.077 30.6726 120.987C26.2112 126.288 20.6486 132.896 19.4726 140.904C18.1099 150.517 23.3552 161.12 26.9392 167.037C26.6779 167.336 26.3979 167.653 26.1179 168.008C23.0006 171.909 23.4486 177.192 23.6539 179.731C24.0272 183.875 27.0139 185.984 32.5766 185.984H35.1152H36.5339C37.8966 185.984 39.4646 185.835 41.2379 185.797C46.5702 185.889 51.8827 185.126 56.9739 183.539C63.6192 181.261 62.5739 174.803 61.8459 169.613C61.4297 166.129 60.1461 162.804 58.1126 159.944L57.9819 159.776C59.7366 157.909 64.5339 154.885 73.5872 152.309C76.3312 151.507 79.0752 150.797 81.7446 150.237C82.8646 150.573 90.3686 152.813 102.539 156.845C114.71 160.877 119.339 164.555 121.99 167.616C122.457 168.139 122.513 168.475 122.419 170.379C122.222 172.4 122.445 174.439 123.073 176.371C124.529 180.421 129.849 182.157 140.862 182.157C141.497 182.157 142.131 182.157 142.598 182.157H143.942H144.222C146.238 182.157 148.273 181.971 150.121 181.821C150.443 181.853 150.768 181.853 151.091 181.821C152.575 181.743 154.045 181.505 155.478 181.112C156.808 180.668 157.982 179.848 158.856 178.752C159.731 177.655 160.269 176.329 160.406 174.933C160.706 172.619 160.446 170.266 159.647 168.073C158.848 165.88 157.533 163.912 155.814 162.333C154.693 161.446 153.733 160.373 152.977 159.16L152.865 159.011C152.305 158.245 151.595 157.275 150.606 155.987C149.617 154.699 147.507 151.077 144.67 145.925C151.575 146.253 158.401 144.348 164.139 140.493C179.353 130.469 175.937 110.981 171.998 102.077C170.075 97.7465 170.691 97.3732 172.539 96.2159Z" fill="white"/>
<path d="M170.113 92.3519C175.713 88.8985 177.225 85.5759 175.302 81.1519C174.706 80.0212 173.857 79.0437 172.821 78.2957C171.784 77.5477 170.589 77.0494 169.329 76.8399C166.865 76.3172 161.862 76.2239 156.262 81.3759C148.198 88.8425 150.121 95.5812 152.249 100.043C154.377 104.504 157.849 113.464 154.955 119.288C154.171 120.705 153.064 121.918 151.725 122.829C150.386 123.74 148.852 124.324 147.246 124.533C132.313 127.688 122.139 111.373 121.766 110.739C121.393 110.104 121.075 109.189 120.777 108.499C114.355 93.2292 119.003 84.5865 121.299 81.5625C124.081 77.8292 139.966 70.3625 150.457 65.4905C154.078 63.7732 157.233 62.2985 159.249 61.2532L160.593 60.5625C166.715 57.4452 171.793 54.8692 170.038 47.4959C170.066 47.3919 170.066 47.2825 170.038 47.1786C169.591 45.5108 168.965 43.8961 168.171 42.3625C167.639 41.2702 166.947 40.2635 166.118 39.3759C159.958 33.0479 148.478 38.1812 139.051 42.3999L134.721 44.2665C125.005 48.0507 115.091 51.3035 105.022 54.0106C105.533 50.5673 105.388 47.0583 104.593 43.6692C104.565 43.5723 104.515 43.483 104.447 43.4085C104.379 43.3341 104.295 43.2763 104.201 43.2399C101.867 42.3999 96.0246 39.7492 95.4086 37.4345C95.2406 36.8185 95.0912 36.1092 94.9232 35.3625C94.4843 32.8448 93.7122 30.3966 92.6272 28.0825C91.5832 27.0158 90.7195 25.7864 90.0699 24.4425C90.0615 24.3744 90.0615 24.3054 90.0699 24.2372C87.9105 21.817 85.466 19.6672 82.7899 17.8345C82.7066 17.779 82.6099 17.7467 82.5099 17.7412C81.2438 14.9925 79.4922 12.4947 77.3392 10.3679C75.2124 8.36481 72.6452 6.88891 69.844 6.05893C67.0428 5.22895 64.0859 5.06806 61.2112 5.58921C60.3526 5.75721 58.3179 6.22388 57.9259 7.08255C57.5339 7.94121 56.4699 11.4505 55.2939 15.9679C55.2939 15.9679 55.2939 15.9679 55.2006 15.9679C55.1072 15.9679 53.0166 15.2959 45.5499 15.9679C40.9449 16.3592 36.5627 18.1212 32.9686 21.0265C32.8962 21.0958 32.8401 21.1803 32.8046 21.274C32.7691 21.3676 32.7549 21.4681 32.7632 21.5679C32.7706 21.6691 32.8035 21.7667 32.8591 21.8516C32.9146 21.9366 32.9908 22.0059 33.0806 22.0532L35.0779 23.2105C33.7491 23.7604 32.4948 24.4754 31.3446 25.3385C29.7375 26.4475 28.4758 27.9874 27.7046 29.7812C25.4853 28.7041 23.1893 27.7932 20.8352 27.0559C18.4803 26.2898 15.9775 26.0917 13.5314 26.4777C11.0852 26.8638 8.7651 27.8231 6.76056 29.2772C3.02723 32.3572 8.1979 40.1225 10.4939 43.4265C12.4467 45.9631 14.8361 48.1312 17.5499 49.8292C17.5499 50.5385 17.5499 52.2372 17.5499 55.2799C17.5499 58.3226 17.7552 60.8799 17.8486 62.4665C12.2486 67.1892 9.44856 69.9332 9.29923 70.6425C9.1499 71.3519 9.57923 75.4959 10.7366 75.7199C11.1708 75.7677 11.609 75.7677 12.0432 75.7199L15.5526 82.0479C14.2174 83.4599 13.3786 85.2685 13.1632 87.1999C13.1993 89.8251 13.8455 92.406 15.0507 94.7386C16.2558 97.0711 17.9869 99.0914 20.1072 100.64C23.4299 103.048 29.2352 105.269 38.1206 102.283C38.2 102.237 38.2901 102.213 38.3819 102.213C38.4736 102.213 38.5638 102.237 38.6432 102.283C40.1739 103.421 39.9499 110.944 39.8379 114.976C39.8379 117.216 37.1499 120.315 34.1259 123.899C30.0379 128.771 24.9419 134.819 23.9899 141.52C22.5152 152.067 30.8592 164.872 32.7259 167.653C31.5997 168.61 30.5682 169.672 29.6459 170.827C27.6486 173.309 27.9846 177.229 28.1712 179.32C28.3206 181.019 29.7392 181.411 32.5206 181.411C33.5659 181.411 34.8166 181.411 36.2539 181.299C37.6912 181.187 39.2592 181.149 41.0699 181.112C45.9367 181.192 50.7863 180.512 55.4432 179.096C58.2246 178.144 58.1499 176.016 57.3099 170.173C57.0045 167.358 55.9614 164.673 54.2859 162.389C53.8028 161.697 53.3663 160.974 52.9792 160.224C52.877 159.965 52.834 159.686 52.8534 159.409C52.8727 159.131 52.954 158.861 53.0912 158.619C54.4352 155.595 60.8752 151.152 72.2619 147.717C75.9952 146.616 79.4672 145.851 82.4352 145.235C82.4666 145.323 82.5184 145.403 82.5865 145.468C82.6546 145.533 82.7371 145.581 82.8272 145.608C82.8272 145.608 90.5739 147.904 103.939 152.309C117.305 156.715 122.214 160.877 125.35 164.368C126.031 165.197 126.525 166.163 126.799 167.2C127.072 168.237 127.119 169.321 126.937 170.379C126.782 171.809 126.915 173.256 127.329 174.635C128.094 176.744 134.553 177.379 140.974 177.379H143.121C145.659 177.379 148.086 177.192 150.027 177.005H150.214C151.47 176.918 152.718 176.737 153.947 176.464C154.441 176.292 154.876 175.986 155.206 175.581C155.536 175.175 155.746 174.686 155.814 174.168C155.949 172.653 155.742 171.127 155.209 169.702C154.676 168.277 153.83 166.99 152.734 165.936C151.364 164.777 150.191 163.402 149.262 161.867C148.702 161.101 147.974 160.112 146.947 158.749C142.996 152.568 139.363 146.188 136.065 139.635C139.276 140.844 142.676 141.476 146.107 141.501C151.63 141.492 157.025 139.835 161.601 136.741C174.257 128.397 171.195 111.653 167.798 103.963C165.558 98.9039 165.222 95.3759 170.113 92.3519Z" fill="#F3BD48"/>
<path d="M90.6672 143.536C90.6672 143.536 115.905 153.765 126.377 152.701C136.849 151.637 134.142 140.027 134.142 140.027L135.673 141.016C135.673 141.016 145.155 158.432 147.377 160.896C148.977 162.885 150.238 165.123 151.11 167.523L136.83 171.443L130.819 169.576C130.819 169.576 124.622 161.549 122.139 159.851C114.654 155.399 106.647 151.888 98.3019 149.397C93.2528 148.191 88.3089 146.58 83.5179 144.581L90.6672 143.536Z" fill="#CE7A23"/>
<path d="M55.7979 92.7999C55.7979 92.7999 52.1952 92.4639 52.3632 102.245C52.5312 112.027 51.5979 132.597 68.0432 134.221C84.4886 135.845 101.438 135.08 105.862 124.272C110.286 113.464 101.27 78.9679 94.9606 78.8746C88.6512 78.7812 76.2939 86.0239 69.8352 88.9172C65.3457 90.8188 60.6265 92.1241 55.7979 92.7999Z" fill="white"/>
<path d="M113.646 52.3866L109.017 53.8239L104.406 55.1119C104.406 55.1119 103.79 56.6052 102.801 58.6026C103.498 56.5905 103.962 54.5048 104.182 52.3866C104.329 49.5742 104.141 46.7544 103.622 43.9866C103.622 43.9866 99.5152 42.1199 98.0219 41.2239C96.5286 40.3279 94.2886 38.1252 94.2886 36.5946C93.6165 33.7078 92.7305 30.8751 91.6379 28.1199L86.6912 36.4826C87.3733 37.3387 87.8463 38.3422 88.0726 39.4132C88.13 40.1463 88.13 40.8828 88.0726 41.6159C90.41 42.1179 92.6922 42.8495 94.8859 43.7999C96.5477 44.3078 98.1262 45.0561 99.5712 46.0212C99.5712 46.0212 100.262 54.3092 96.5099 60.3759C92.7579 66.4426 84.9179 70.5492 84.9179 70.5492C84.7268 69.3923 84.3284 68.2793 83.7419 67.2639C83.3871 66.57 82.9204 65.9393 82.3606 65.3972C82.2529 67.7042 81.334 69.899 79.7659 71.5946C77.9099 73.1147 75.8244 74.3307 73.5872 75.1972C73.5872 75.1972 70.2272 79.9199 68.6032 80.2932C68.6032 80.2932 69.7792 80.3866 69.8912 82.9439C69.8963 84.8197 69.7465 86.6927 69.4432 88.5439C67.4716 89.736 65.2933 90.5466 63.0219 90.9332C58.3247 91.4555 53.595 91.6239 48.8726 91.4372C48.8726 91.4372 63.1899 84.4932 63.6939 82.3279C64.1979 80.1626 64.7392 72.9945 64.7392 72.9945L55.4059 71.5946C55.4059 71.5946 46.0726 75.9439 36.1979 81.9172C26.3232 87.8905 23.4672 92.0532 24.5499 96.1786C25.6326 100.304 32.1286 101.069 35.0779 100.995C38.0272 100.92 40.0059 100.995 40.0992 102.861C40.1926 104.728 40.9952 114.379 40.8646 114.883C40.7339 115.387 40.4912 116.245 40.4912 116.245C40.4912 116.245 57.4779 98.2692 73.8672 89.6826C90.2566 81.0959 98.6939 76.4479 101.513 73.2185C104.331 69.9892 111.35 64.5946 113.049 58.9572C114.747 53.3199 113.646 52.3866 113.646 52.3866Z" fill="#CE7A23"/>
<path d="M55.7046 87.9466C55.7046 87.9466 55.3686 90.7839 56.9926 91.3626C58.6166 91.9412 55.6673 95.0959 55.6673 95.0959L44.7473 89.6826L49.8806 84.9972L55.7046 87.9466Z" fill="#CE7A23"/>
<path d="M127.329 172.171C127.346 173.082 127.517 173.985 127.833 174.84H128.019C128.945 175.284 129.945 175.556 130.969 175.643C131.902 175.792 132.835 175.941 133.769 176.035C135.635 176.203 137.689 176.035 139.667 176.184C141.762 176.324 143.863 176.324 145.958 176.184C146.966 176.184 147.955 176.016 148.945 175.885C149.871 175.646 150.825 175.527 151.782 175.531C151.887 175.542 151.985 175.588 152.062 175.661C152.977 175.531 154.414 175.661 154.955 174.784C155.515 173.44 155.555 171.937 155.067 170.565C154.227 167.411 151.894 165.264 149.617 163.099C149.537 163.041 149.483 162.953 149.467 162.856C147.881 162.277 146.033 161.792 145.118 162.333C143.475 163.285 144.278 166.216 144.278 166.216C144.278 166.216 141.179 162.613 139.518 163.248C137.857 163.883 138.155 167.336 138.155 167.336C138.155 167.336 135.971 162.875 134.217 163.603C132.462 164.331 133.134 167.933 133.134 167.933C133.134 167.933 130.185 163.061 128.43 163.733C128.037 163.898 127.689 164.152 127.413 164.477C127.138 164.801 126.942 165.186 126.843 165.6C127.293 167.759 127.457 169.969 127.329 172.171Z" fill="white"/>
<path d="M49.3206 93.5279H46.9312C46.5087 93.5181 46.1071 93.3421 45.8136 93.038C45.52 92.734 45.3582 92.3265 45.3632 91.9039C45.373 91.4863 45.5471 91.0895 45.8476 90.7994C46.1482 90.5094 46.5509 90.3495 46.9686 90.3545C47.0806 90.3545 59.1019 90.5039 62.9846 89.6265C68.9952 88.2452 75.3046 82.4959 79.9339 78.2959C81.8816 76.3479 84.0275 74.6087 86.3366 73.1065C90.4806 70.9225 99.4032 63.5305 101.755 57.1839C103.042 53.2501 103.28 49.0485 102.446 44.9945C100.001 43.9679 94.0832 41.2612 93.2246 37.9199C93.0379 37.2665 92.8886 36.5199 92.7206 35.7359C92.2144 32.3005 90.8679 29.0433 88.8006 26.2532C86.6208 23.7134 84.1094 21.4783 81.3339 19.6079C81.1586 19.4853 81.0092 19.3294 80.8942 19.1491C80.7792 18.9688 80.7008 18.7676 80.6635 18.557C80.6263 18.3464 80.6308 18.1305 80.677 17.9217C80.7232 17.7129 80.81 17.5152 80.9326 17.3399C81.0551 17.1646 81.211 17.0152 81.3913 16.9002C81.5717 16.7851 81.7729 16.7068 81.9835 16.6695C82.1941 16.6322 82.4099 16.6368 82.6188 16.683C82.8276 16.7291 83.0253 16.816 83.2006 16.9386C86.2122 19.0021 88.9365 21.4564 91.3019 24.2372C93.6813 27.4162 95.2335 31.1365 95.8192 35.0639C95.9686 35.8105 96.1179 36.5012 96.2859 37.1172C96.6592 38.5172 100.785 40.8505 104.387 42.3625C104.623 42.4481 104.835 42.5896 105.004 42.7749C105.173 42.9602 105.294 43.1839 105.358 43.4265C106.546 48.3647 106.333 53.5364 104.742 58.3599C102.11 65.4905 92.5339 73.4799 87.8486 75.9999C85.7707 77.3743 83.838 78.9567 82.0806 80.7225C77.2086 85.1652 70.5259 91.2319 63.7126 92.7812C58.9427 93.4119 54.1301 93.6616 49.3206 93.5279Z" fill="black"/>
<path d="M127.515 124.813C127.767 127.515 127.29 130.236 126.134 132.691C124.267 136.424 121.243 136.144 121.131 137.637C121.019 139.131 123.67 140.568 127.945 138.571C132.219 136.573 132.593 134.464 132.593 134.464L127.515 124.813Z" fill="#CE7A23"/>
<path d="M133.302 135.547C133.491 138.111 132.689 140.649 131.062 142.64C128.355 145.813 126.526 144.992 125.798 146.747C125.35 147.811 125.201 148.931 130.054 148.613C133.053 148.41 135.901 147.222 138.155 145.235L133.302 135.547Z" fill="#CE7A23"/>
<path d="M156.467 56.5865C156.467 56.5865 123.502 72.0799 117.099 79.3786C110.697 86.6772 112.843 95.8052 114.467 100.397C116.091 104.989 120.609 112.381 120.945 110.813C121.281 109.245 114.579 100.733 117.211 89.4399C119.843 78.1466 130.278 74.6932 132.369 73.6106C134.459 72.5279 160.705 59.7786 160.705 59.7786C160.705 59.7786 162.571 54.8879 161.563 54.7199C159.781 55.0831 158.063 55.7124 156.467 56.5865Z" fill="#CE7A23"/>
<path d="M132.201 46.0212C133.055 46.3704 133.819 46.91 134.434 47.599C135.048 48.2881 135.498 49.1083 135.747 49.9972C136.55 52.9839 137.147 59.0879 134.478 59.4612C131.809 59.8346 133.265 55.5972 130.577 52.6106C129.086 50.8851 127.264 49.476 125.219 48.4666L131.958 46.0212" fill="#CE7A23"/>
<path d="M123.745 116.619C123.976 117.628 123.987 118.676 123.778 119.691C123.568 120.705 123.143 121.663 122.531 122.499C120.441 124.907 120.777 126.885 121.467 127.147C124.323 128.192 127.254 123.88 126.47 122.331C125.947 121.267 123.745 116.619 123.745 116.619Z" fill="#CE7A23"/>
<path d="M158.017 60.8052C160.406 59.4985 163.001 58.6399 165.353 57.2585C166.493 56.6454 167.516 55.8366 168.377 54.8692C169.167 54.0267 169.647 52.9406 169.739 51.7892C169.907 50.4536 169.87 49.1001 169.627 47.7759C169.42 46.5378 169.05 45.3327 168.526 44.1919C167.721 42.2076 166.491 40.4237 164.923 38.9652C163.276 37.7187 161.258 37.0613 159.193 37.0985C156.853 37.1411 154.528 37.467 152.267 38.0692C150.979 38.3305 149.729 38.6852 148.534 39.0585C147.496 39.2372 146.509 39.6384 145.641 40.2345C145.541 40.3179 145.416 40.3641 145.286 40.3652V40.7012C145.58 41.5585 146.143 42.2982 146.891 42.8105C148.182 43.2128 149.542 43.3462 150.886 43.2025C150.886 43.2025 148.011 45.2932 148.534 46.6185C149.057 47.9439 153.219 47.4212 153.219 47.4212C153.219 47.4212 149.691 50.3705 150.849 52.0132C152.006 53.6559 156.449 52.2745 156.449 52.2745C156.449 52.2745 152.099 55.4479 153.91 57.2212C154.493 57.7283 155.219 58.042 155.988 58.1189C156.757 58.1958 157.531 58.0322 158.203 57.6505C158.203 57.6505 157.233 59.8345 158.017 60.8052Z" fill="white"/>
<path d="M113.646 52.3865C114.988 52.9062 116.192 53.7292 117.164 54.7914C118.135 55.8535 118.848 57.1259 119.246 58.5092C120.217 62.9145 118.649 67.1892 121.486 67.5999C124.323 68.0105 126.507 63.1945 125.425 57.0345C124.342 50.8745 122.009 49.7359 122.009 49.7359L113.646 52.3865Z" fill="#CE7A23"/>
<path d="M143.251 41.2239C144.244 41.6791 145.126 42.3434 145.838 43.1715C146.551 43.9995 147.075 44.9716 147.377 46.0212C147.881 49.1572 147.75 54.0479 145.043 54.1972C142.337 54.3466 144.017 51.1359 141.179 48.4292C139.164 46.6896 136.733 45.5001 134.123 44.9759L143.251 41.2239Z" fill="#CE7A23"/>
<path d="M52.3632 63.5492C51.79 63.5645 51.229 63.7185 50.7283 63.9981C50.2277 64.2777 49.8023 64.6745 49.4886 65.1545C48.1446 66.9092 49.6379 69.6532 48.0512 70.1945C46.4646 70.7359 43.5712 67.6932 44.3179 64.9305C45.0646 62.1679 52.9606 61.4585 52.9606 61.4585L52.3632 63.5492Z" fill="#CE7A23"/>
<path d="M150.046 177.827H149.654C149.257 177.725 148.916 177.474 148.7 177.126C148.484 176.778 148.412 176.36 148.497 175.96C148.497 175.96 149.542 171.312 147.377 169.949C147.179 169.851 147.004 169.713 146.863 169.543C146.722 169.373 146.618 169.176 146.558 168.964C146.497 168.752 146.482 168.529 146.512 168.311C146.542 168.092 146.618 167.882 146.734 167.695C146.85 167.507 147.004 167.345 147.186 167.221C147.367 167.096 147.573 167.01 147.79 166.969C148.007 166.929 148.23 166.934 148.445 166.984C148.66 167.034 148.862 167.129 149.038 167.261C153.201 169.856 151.651 176.427 151.577 176.707C151.479 177.035 151.276 177.322 151 177.524C150.723 177.726 150.388 177.833 150.046 177.827Z" fill="black"/>
<path d="M52.3632 61.3652C52.3632 61.3652 51.2246 63.2319 51.9899 64.1279C52.7552 65.0239 55.4432 65.1359 55.4432 65.1359C55.4432 65.1359 52.0832 66.6665 52.6992 68.5332C53.3152 70.3999 57.0112 70.1012 57.0112 70.1012C57.0112 70.1012 53.2779 71.3332 53.9499 73.3492C54.6219 75.3652 58.5046 74.3012 58.5046 74.3012C58.5046 74.3012 55.2006 76.4292 56.0592 78.6692C56.9179 80.9092 61.1366 78.6692 61.1366 78.6692C61.1366 78.6692 59.4939 81.7305 60.1099 83.3919C60.7259 85.0532 61.3232 85.0159 61.3232 85.0159C61.3232 85.0159 73.5872 78.2025 75.7526 70.7172C77.9179 63.2319 75.7526 59.3492 71.0672 58.4159C66.3819 57.4826 52.3632 61.3652 52.3632 61.3652Z" fill="white"/>
<path d="M53.8753 155.744C53.8753 155.744 52.4379 154.587 50.4966 156.752C48.5553 158.917 48.4433 164.219 48.6299 166.533C48.8166 168.848 52.1393 170.677 52.2699 170.677C52.4006 170.677 54.5099 167.075 54.5099 167.075C54.298 165.762 53.9987 164.465 53.6139 163.192C53.3339 162.576 51.0753 158.507 53.8753 155.744Z" fill="#CE7A23"/>
<path d="M54.9952 179.003C55.3406 178.925 55.6664 178.778 55.9523 178.569C56.2381 178.36 56.4779 178.095 56.6566 177.789C56.8875 177.187 57.0503 176.561 57.1419 175.923C57.3473 174.38 57.3473 172.817 57.1419 171.275C57.0694 170.296 56.9006 169.327 56.6379 168.381C56.4886 167.933 56.3392 167.485 56.1526 167.037C55.6505 165.369 54.9419 163.77 54.0432 162.277C51.2619 163.603 51.8219 168.456 51.8219 168.456C51.8219 168.456 50.4219 162.427 47.5472 163.677C44.6726 164.928 45.8486 168.773 45.8486 168.773C45.8486 168.773 43.6086 163.173 41.0886 163.715C38.5686 164.256 39.5579 169.203 39.5579 169.203C39.5579 169.203 38.0646 164.312 35.5259 164.312C34.9243 164.377 34.3456 164.579 33.8343 164.902C33.323 165.226 32.8927 165.663 32.5766 166.179C32.8611 166.421 33.0509 166.756 33.1124 167.125C33.1739 167.494 33.1031 167.873 32.9126 168.195C32.3167 168.915 31.6186 169.543 30.8406 170.061C29.9929 170.744 29.3048 171.604 28.8246 172.581C28.4397 173.67 28.2748 174.825 28.3392 175.979C28.3392 177.845 28.0592 180.235 30.4112 180.683C32.3364 180.925 34.2806 180.982 36.2166 180.851C38.5133 180.81 40.8063 180.648 43.0859 180.365C45.2699 180.104 47.4912 180.141 49.7126 179.955C51.3281 179.826 52.9317 179.576 54.5099 179.208L54.9952 179.003Z" fill="white"/>
<path d="M18.6512 80.2932C18.2605 81.0682 18.0309 81.9144 17.9763 82.7807C17.9218 83.647 18.0434 84.5153 18.3339 85.3332C19.4539 87.3865 22.2539 86.0052 22.3472 87.7599C22.4406 89.5145 21.1152 90.4479 17.6806 90.1865C14.2459 89.9252 13.9472 89.6079 13.9472 89.6079C13.9472 89.6079 12.2672 84.0265 18.6512 80.2932Z" fill="#CE7A23"/>
<path d="M30.3366 129.835C30.2981 131.085 30.6325 132.32 31.2973 133.38C31.9621 134.44 32.9272 135.279 34.0699 135.789C38.3072 138.085 41.0512 137.32 40.7152 139.709C40.3792 142.099 35.3766 142.528 31.5686 141.277C29.3762 140.609 27.4287 139.311 25.9686 137.544C25.9686 137.544 29.0672 130.693 30.3366 129.835Z" fill="#CE7A23"/>
<path d="M37.8032 120.912C37.8032 120.912 36.9632 122.517 38.9792 125.467C40.9952 128.416 41.9286 128.099 41.1632 129.555C40.3979 131.011 32.9312 128.864 33.1179 126.493C33.3046 124.123 37.8032 120.912 37.8032 120.912Z" fill="#CE7A23"/>
<path d="M142.934 178.2H142.467C142.267 178.14 142.081 178.041 141.919 177.909C141.758 177.778 141.624 177.615 141.525 177.431C141.426 177.248 141.364 177.046 141.343 176.838C141.323 176.631 141.343 176.421 141.403 176.221C141.777 174.989 142.318 171.387 140.526 169.725C140.23 169.428 140.063 169.025 140.063 168.605C140.063 168.185 140.23 167.783 140.526 167.485C140.826 167.188 141.232 167.021 141.655 167.021C142.078 167.021 142.484 167.188 142.785 167.485C146.35 170.827 144.651 176.949 144.521 177.211C144.397 177.524 144.177 177.789 143.891 177.968C143.605 178.146 143.27 178.227 142.934 178.2Z" fill="black"/>
<path d="M151.95 89.0665C151.95 89.0665 152.305 89.7385 153.985 88.7119C155.665 87.6852 156.299 86.4159 158.595 85.1092C159.836 84.3608 161.213 83.866 162.646 83.6532C161.186 84.8461 159.926 86.2639 158.913 87.8532C157.979 89.7199 157.625 91.3065 158.166 91.8479C158.707 92.3892 161.619 89.9812 163.766 88.9172C164.962 88.2615 166.211 87.7058 167.499 87.2559C166.395 88.6536 165.542 90.2327 164.979 91.9225C164.898 93.5582 165.185 95.1913 165.819 96.7012C166.48 94.6808 167.845 92.9651 169.665 91.8665C172.521 90.3732 175.078 87.8345 175.395 85.7065C175.713 83.5785 176.198 80.1065 171.438 78.2399C166.678 76.3732 157.625 76.8399 151.95 89.0665Z" fill="white"/>
<path d="M85.0672 33.0665C85.0672 33.0665 84.5446 31.1999 83.7232 31.1999C82.9019 31.1999 82.5472 34.2612 81.4459 33.7945C80.3446 33.3279 80.4006 32.4692 80.1579 31.0692C80.0068 30.2459 79.7755 29.4394 79.4672 28.6612C79.2961 29.7537 78.9692 30.8161 78.4966 31.8159C77.9739 32.5252 76.6299 32.6559 76.6299 31.1625C76.6299 29.6692 75.8272 24.4425 72.1872 21.8292C68.5472 19.2159 63.5632 18.7492 63.2459 19.2159C62.6528 21.2348 62.2405 23.3025 62.0139 25.3945C62.0139 26.4025 62.0139 28.6799 62.0139 28.6799C62.0139 28.6799 61.0246 29.1465 60.5019 28.4745C59.9792 27.8025 60.0539 26.8505 59.7366 27.2052C59.4192 27.5599 60.0166 30.2665 58.0939 29.9679C56.1712 29.6692 57.0486 26.2345 55.8352 26.2345C55.168 26.2288 54.5155 26.431 53.9686 26.8132C53.9686 26.8132 55.3126 19.3465 56.9739 13.7465C58.6352 8.14654 57.5152 6.98921 59.7926 6.46655C62.0699 5.94388 72.0006 5.15988 78.0112 12.2719C84.0219 19.3839 83.2006 19.4212 83.2006 19.4212C83.2006 19.4212 86.5979 22.1092 88.2219 23.5465C89.8459 24.9839 89.8459 25.6185 89.8459 25.6185C88.3992 28.192 86.8036 30.6789 85.0672 33.0665Z" fill="#CE7A23"/>
<path d="M146.667 140.512C147.266 138.454 147.167 136.255 146.387 134.259C145.257 131.139 143.532 128.267 141.31 125.803C138.462 125.303 135.706 124.378 133.134 123.059C129.765 120.52 126.56 117.771 123.539 114.827C125.275 119.091 127.237 123.26 129.419 127.315C131.566 130.712 134.795 138.123 135.019 138.179C135.243 138.235 142.617 142.323 146.667 140.512Z" fill="#CE7A23"/>
<path d="M143.606 125.784C143.606 125.784 148.366 126.605 149.897 130.208C151.427 133.811 150.83 137.283 152.267 137.413C153.705 137.544 156.635 136.2 156.262 129.835C155.889 123.469 153.219 122.909 153.219 122.909C153.219 122.909 145.529 126.064 143.606 125.784Z" fill="#CE7A23"/>
<path d="M155.179 120.8C156.94 120.159 158.87 120.159 160.63 120.8C163.934 121.771 163.355 124.925 165.465 124.291C167.574 123.656 167.537 116.824 163.766 114.416C162.762 113.718 161.63 113.226 160.435 112.97C159.239 112.714 158.005 112.697 156.803 112.923L155.179 120.8Z" fill="#CE7A23"/>
<path d="M155.683 106.781C155.683 106.781 156.038 105.587 159.417 105.68C162.795 105.773 162.702 108.872 164.401 108.517C166.099 108.163 165.651 101.051 160.891 99.5572C159.705 99.0501 158.407 98.8592 157.124 99.0032C155.842 99.1471 154.619 99.621 153.574 100.379L155.683 106.781Z" fill="#CE7A23"/>
<path d="M146.051 142.379C141.869 142.402 137.732 141.504 133.937 139.747C133.75 139.652 133.583 139.521 133.447 139.361C133.311 139.202 133.208 139.017 133.144 138.817C133.079 138.618 133.055 138.407 133.073 138.198C133.09 137.989 133.149 137.786 133.246 137.6C133.34 137.403 133.474 137.227 133.639 137.085C133.805 136.942 133.999 136.836 134.208 136.772C134.417 136.709 134.637 136.69 134.854 136.717C135.071 136.744 135.28 136.816 135.467 136.928C139.456 138.709 143.831 139.448 148.183 139.076C152.535 138.703 156.722 137.232 160.35 134.8C174.63 125.467 165.838 104.933 165.745 104.784C163.617 99.9492 162.31 94.4426 168.918 90.3732C174.182 87.1066 174.518 84.7732 173.23 81.9732C172.776 81.1735 172.147 80.4863 171.391 79.9628C170.635 79.4393 169.77 79.0928 168.862 78.9492C166.809 78.5012 162.627 78.4452 157.662 82.9439C150.811 89.2346 152.062 94.6105 154.153 99.0345C156.561 104.093 160.126 113.557 156.841 120.221C155.922 121.954 154.605 123.445 152.999 124.571C151.393 125.696 149.543 126.426 147.601 126.699C131.006 130.227 120.179 112.605 119.731 111.765C119.629 111.583 119.563 111.382 119.539 111.174C119.515 110.966 119.531 110.756 119.589 110.554C119.646 110.353 119.742 110.165 119.873 110.001C120.003 109.838 120.164 109.701 120.347 109.6C120.71 109.386 121.141 109.323 121.55 109.424C121.958 109.525 122.311 109.783 122.531 110.141C122.625 110.309 132.649 126.568 147.022 123.525C148.496 123.362 149.91 122.851 151.146 122.033C152.383 121.215 153.407 120.114 154.134 118.821C156.001 114.827 155.105 108.107 151.427 100.397C149.15 95.6559 147.115 88.4319 155.646 80.5919C161.563 75.1599 166.846 75.2719 169.571 75.8319C170.977 76.0758 172.308 76.6427 173.458 77.4881C174.608 78.3336 175.546 79.4344 176.198 80.7039C178.923 86.9386 174.649 90.5786 170.598 93.0612C166.547 95.5439 166.249 98.0079 168.731 103.496C172.241 111.429 175.377 128.752 162.198 137.451C157.43 140.671 151.805 142.388 146.051 142.379Z" fill="black"/>
<path d="M157.531 44.3972C157.309 44.4007 157.089 44.3557 156.886 44.2655C156.683 44.1752 156.502 44.0418 156.355 43.8746C156.213 43.7212 156.103 43.5411 156.032 43.3447C155.961 43.1483 155.929 42.9397 155.94 42.731C155.95 42.5223 156.002 42.3178 156.093 42.1295C156.183 41.9412 156.311 41.7729 156.467 41.6345C161.769 36.8185 165.801 38.1439 166.137 38.3119C166.333 38.3842 166.513 38.4944 166.666 38.6363C166.82 38.7781 166.944 38.9488 167.031 39.1386C167.119 39.3285 167.168 39.5336 167.176 39.7425C167.185 39.9513 167.152 40.1598 167.079 40.3559C167.007 40.552 166.897 40.7319 166.755 40.8854C166.613 41.0389 166.442 41.163 166.252 41.2505C166.063 41.3381 165.857 41.3874 165.649 41.3956C165.44 41.4038 165.231 41.3709 165.035 41.2985C164.867 41.2985 162.385 40.5519 158.595 43.9865C158.304 44.2506 157.925 44.3969 157.531 44.3972Z" fill="black"/>
<path d="M162.291 50.0159C161.987 50.0142 161.691 49.9254 161.436 49.76C161.181 49.5945 160.979 49.3594 160.854 49.0826C160.765 48.8963 160.715 48.6944 160.704 48.4885C160.694 48.2825 160.724 48.0765 160.794 47.8823C160.863 47.6881 160.97 47.5095 161.108 47.3567C161.247 47.2039 161.414 47.0799 161.601 46.9919C164.144 45.6871 167.069 45.3298 169.851 45.9839C170.05 46.0488 170.234 46.1523 170.392 46.2883C170.551 46.4243 170.681 46.5902 170.776 46.7765C170.87 46.9629 170.927 47.166 170.943 47.3743C170.959 47.5826 170.934 47.792 170.869 47.9905C170.804 48.1891 170.7 48.3729 170.564 48.5315C170.428 48.6901 170.262 48.8203 170.076 48.9148C169.89 49.0093 169.686 49.0661 169.478 49.0821C169.27 49.0981 169.06 49.0728 168.862 49.0079C166.844 48.5943 164.744 48.898 162.926 49.8665C162.726 49.9555 162.51 50.0062 162.291 50.0159Z" fill="black"/>
<path d="M41.0512 181.821C40.7251 181.822 40.4067 181.721 40.1395 181.534C39.8723 181.347 39.6692 181.082 39.5579 180.776C38.7283 178.689 38.5335 176.403 38.9979 174.205C39.634 172.762 40.7951 171.614 42.2459 170.995C42.4359 170.912 42.6402 170.869 42.8471 170.865C43.0541 170.862 43.2596 170.9 43.452 170.976C43.6444 171.052 43.8199 171.166 43.9685 171.31C44.1171 171.454 44.2358 171.626 44.3179 171.816C44.4 172.006 44.4439 172.21 44.4471 172.417C44.4503 172.624 44.4126 172.83 44.3364 173.022C44.2601 173.214 44.1467 173.39 44.0026 173.538C43.8585 173.687 43.6866 173.806 43.4966 173.888C42.8487 174.186 42.3126 174.683 41.9659 175.307C41.7792 176.794 41.9785 178.305 42.5446 179.693C42.6159 179.889 42.6479 180.098 42.6386 180.306C42.6294 180.514 42.5791 180.719 42.4906 180.908C42.4022 181.097 42.2774 181.267 42.1233 181.407C41.9692 181.548 41.7888 181.657 41.5926 181.728C41.4177 181.786 41.2353 181.817 41.0512 181.821Z" fill="black"/>
<path d="M34.9846 182.176C34.7089 182.175 34.4382 182.102 34.1993 181.965C33.9604 181.827 33.7614 181.63 33.6219 181.392C32.4921 179.502 32.1124 177.257 32.5579 175.101C32.7815 174.23 33.1842 173.415 33.7402 172.708C34.2962 172.001 34.9933 171.417 35.7872 170.995C36.1709 170.821 36.6077 170.808 37.0015 170.956C37.3954 171.105 37.714 171.404 37.8872 171.788C38.0605 172.172 38.0743 172.608 37.9255 173.002C37.7767 173.396 37.4776 173.715 37.0939 173.888C36.3362 174.365 35.7991 175.124 35.6006 175.997C35.4223 177.293 35.6923 178.61 36.3659 179.731C36.5758 180.095 36.6328 180.527 36.5243 180.933C36.4158 181.339 36.1507 181.685 35.7872 181.896C35.5515 182.063 35.2732 182.16 34.9846 182.176Z" fill="black"/>
<path d="M42.6192 169.109H37.3366C36.9158 169.109 36.5122 168.942 36.2146 168.645C35.9171 168.347 35.7499 167.943 35.7499 167.523C35.7499 167.102 35.9171 166.698 36.2146 166.401C36.5122 166.103 36.9158 165.936 37.3366 165.936H42.6192C43.04 165.936 43.4436 166.103 43.7412 166.401C44.0387 166.698 44.2059 167.102 44.2059 167.523C44.2059 167.943 44.0387 168.347 43.7412 168.645C43.4436 168.942 43.04 169.109 42.6192 169.109Z" fill="black"/>
<path d="M62.6672 28.2692C62.6672 28.1199 62.3126 20.4852 63.6006 19.7199C64.8886 18.9545 72.5232 21.9972 73.9792 23.9759C75.3494 25.8736 76.2106 28.0908 76.4806 30.4159C76.2566 30.9945 63.3766 30.3785 62.6672 28.2692Z" fill="#F97FB5"/>
<path d="M41.4432 66.1439C39.8635 67.4447 38.7551 69.2287 38.2886 71.2212C37.8779 74.0772 39.0539 75.6265 37.5232 76.2799C35.9926 76.9332 32.6886 72.8825 34.0139 69.8772C35.3392 66.8719 41.4432 66.1439 41.4432 66.1439Z" fill="#CE7A23"/>
<path d="M32.4832 70.5679C32.4832 70.5679 28.7499 73.9092 28.1712 77.1946C27.5926 80.4799 29.0672 82.9999 27.7419 83.8959C26.4166 84.7919 21.6192 80.6479 23.6352 76.4292C25.6512 72.2106 32.4832 70.5679 32.4832 70.5679Z" fill="#CE7A23"/>
<path d="M76.7793 32.5252C76.5718 32.5277 76.3659 32.489 76.1735 32.4113C75.9811 32.3336 75.806 32.2185 75.6584 32.0726C75.5108 31.9268 75.3937 31.7531 75.3137 31.5616C75.2337 31.3701 75.1926 31.1647 75.1926 30.9572C75.0744 28.4485 73.9829 26.0847 72.1499 24.3679C69.9223 22.5777 67.2521 21.4232 64.4219 21.0265C64.0505 23.4662 63.8819 25.9324 63.9179 28.3999C63.9277 28.6082 63.8964 28.8165 63.8257 29.0128C63.755 29.209 63.6464 29.3894 63.506 29.5437C63.3656 29.698 63.1962 29.8231 63.0074 29.9119C62.8187 30.0007 62.6143 30.0514 62.4059 30.0612C62.1976 30.071 61.9893 30.0397 61.793 29.969C61.5968 29.8983 61.4164 29.7897 61.2621 29.6493C61.1078 29.5089 60.9827 29.3395 60.8939 29.1507C60.8051 28.962 60.7544 28.7576 60.7446 28.5492C60.7446 28.5492 60.4646 19.2159 62.6113 18.1145C64.2726 17.1999 70.5073 18.7305 74.2593 21.9599C75.5049 23.1106 76.5106 24.4963 77.2186 26.0372C77.9266 27.5782 78.3228 29.2439 78.3846 30.9385C78.3846 31.1485 78.343 31.3563 78.2621 31.5501C78.1812 31.7438 78.0626 31.9196 77.9133 32.0671C77.764 32.2147 77.5868 32.3312 77.3922 32.4098C77.1975 32.4885 76.9892 32.5277 76.7793 32.5252Z" fill="black"/>
<path d="M78.7766 53.6932C78.7766 53.6932 85.7579 37.4532 89.0246 32.0399C92.2912 26.6265 92.7579 26.1412 94.7179 26.4399C96.6779 26.7385 99.3472 26.8505 99.7019 24.7225C100.057 22.5945 99.8139 20.3545 97.3499 20.3919C94.8859 20.4292 92.1606 22.8932 90.7606 24.6105C89.3606 26.3279 82.4352 37.5465 79.7472 41.7652C77.0592 45.9839 77.2646 46.7492 75.3419 47.6265C73.4192 48.5039 20.4246 66.7972 20.4246 66.7972L18.2592 62.7092C18.2592 62.7092 10.0272 69.7279 9.85925 70.5865C9.80613 72.0852 10.1269 73.5735 10.7926 74.9172C11.3079 74.966 11.8266 74.966 12.3419 74.9172L16.2619 81.9732C16.2619 81.9732 26.3792 70.3999 49.4886 62.3359C72.5979 54.2719 75.1552 59.7225 76.2379 63.1945C77.3206 66.6665 73.5312 74.7679 73.5312 74.7679C75.526 74.4483 77.3751 73.5258 78.8301 72.1242C80.285 70.7227 81.276 68.9093 81.6699 66.9279C83.6486 59.5919 80.2886 54.5145 78.7766 53.6932Z" fill="black"/>
<path d="M16.2619 82.9065H16.1499C16.0023 82.8935 15.8603 82.844 15.7365 82.7626C15.6127 82.6811 15.511 82.5703 15.4406 82.4399L11.8006 75.9065C11.4101 75.9553 11.0151 75.9553 10.6246 75.9065C9.14991 75.6079 8.75791 71.0345 8.94458 70.4745C9.13125 69.9145 9.18725 69.2985 17.6432 62.0745C17.752 61.9869 17.8781 61.9233 18.0133 61.8879C18.1484 61.8525 18.2895 61.8462 18.4272 61.8692C18.5662 61.8942 18.6975 61.951 18.8109 62.0352C18.9242 62.1194 19.0165 62.2287 19.0806 62.3545L20.9472 65.7332C39.4646 59.3305 73.5686 47.5145 75.0806 46.8239C76.1446 46.3385 76.3312 46.0025 77.2646 44.3599C77.6939 43.5945 78.2539 42.6239 79.1312 41.2985C80.0086 39.9732 80.9979 38.4425 82.1179 36.5572C85.4032 31.2932 89.1366 25.3572 90.2006 24.0505C90.8166 23.3039 94.0832 19.5519 97.4992 19.4959C97.9751 19.4651 98.4519 19.5414 98.8944 19.719C99.337 19.8967 99.7341 20.1713 100.057 20.5225C100.489 21.1569 100.779 21.8779 100.905 22.6356C101.03 23.3932 100.989 24.1691 100.785 24.9092C100.262 28.1199 96.1179 27.5785 94.7552 27.3919C93.3926 27.2052 93.2246 27.1865 89.9766 32.5812C86.9339 37.1919 81.3339 50.2959 79.9152 53.3945C81.7819 55.2612 84.4326 60.3012 82.5659 67.1705C82.1326 69.342 81.0394 71.3268 79.4357 72.8536C77.832 74.3805 75.796 75.375 73.6059 75.7012C73.4437 75.7166 73.2803 75.6884 73.1326 75.6195C72.9849 75.5506 72.8583 75.4435 72.7659 75.3092C72.684 75.1673 72.6409 75.0064 72.6409 74.8425C72.6409 74.6787 72.684 74.5178 72.7659 74.3759C73.7739 72.2105 76.2192 66.0319 75.4166 63.4745C75.2621 62.7201 74.9404 62.0098 74.4753 61.396C74.0101 60.7822 73.4132 60.2806 72.7286 59.9279C68.9952 58.0612 61.3606 59.1812 49.8619 63.2132C27.2006 71.1279 17.0646 82.4772 16.9526 82.5892C16.8647 82.6858 16.7583 82.7638 16.6396 82.8183C16.5209 82.8728 16.3925 82.9028 16.2619 82.9065ZM12.2672 73.9839C12.4324 73.9848 12.5942 74.0304 12.7355 74.1158C12.8769 74.2013 12.9924 74.3234 13.0699 74.4692L16.3739 80.4052C19.3419 77.4559 29.5899 68.2905 49.0966 61.4585C61.2672 57.1839 69.2192 56.1385 73.3632 58.2665C74.2855 58.724 75.0972 59.3766 75.7419 60.1793C76.3866 60.9819 76.8489 61.9153 77.0966 62.9146C77.9552 65.6959 76.2192 70.6985 75.1179 73.4052C76.5293 72.8278 77.7777 71.9134 78.7539 70.7419C79.7301 69.5704 80.4045 68.1776 80.7179 66.6852C82.5846 59.6665 79.2992 55.0746 78.2726 54.5145C78.0682 54.4067 77.9123 54.2254 77.8361 54.0073C77.7599 53.7891 77.7691 53.5502 77.8619 53.3385C78.1419 52.6665 84.8992 36.9679 88.1659 31.5545C91.4326 26.1412 92.1419 25.1145 94.7739 25.4692C98.0592 25.8985 98.6192 25.2079 98.7126 24.5359C98.9963 23.5777 98.8959 22.5466 98.4326 21.6612C98.2836 21.5222 98.1065 21.4169 97.9133 21.3525C97.72 21.2881 97.5151 21.266 97.3126 21.2879C95.4459 21.2879 92.9819 23.1545 91.4139 25.1519C90.4432 26.3465 86.4112 32.7679 83.4806 37.4719L80.4939 42.2319C79.6726 43.5199 79.1126 44.4719 78.6272 45.2185C78.0951 46.6156 77.0643 47.766 75.7339 48.4479C73.8672 49.3439 22.8886 66.9279 20.7232 67.6745C20.5159 67.746 20.29 67.7421 20.0851 67.6636C19.8803 67.5851 19.7097 67.437 19.6032 67.2452L17.9792 64.1839C15.4227 66.2789 12.9977 68.5294 10.7179 70.9225C10.8021 71.9759 11.0088 73.0158 11.3339 74.0212C11.6445 74.0477 11.9567 74.0477 12.2672 74.0212V73.9839Z" fill="black"/>
<path d="M65.6912 69.3359C65.4136 69.339 65.1432 69.2468 64.9253 69.0746C64.7074 68.9025 64.5552 68.6608 64.494 68.3899C64.4329 68.119 64.4665 67.8353 64.5892 67.5862C64.712 67.3372 64.9165 67.1377 65.1686 67.0212C66.6868 66.23 67.8526 64.8977 68.4352 63.2879C68.6264 62.4612 68.637 61.603 68.4663 60.7719C68.2955 59.9408 67.9475 59.1562 67.4459 58.4719C67.3149 58.2016 67.2887 57.8924 67.3726 57.6039C67.4564 57.3155 67.6442 57.0684 67.8997 56.9105C68.1552 56.7526 68.4602 56.695 68.7556 56.7489C69.0511 56.8029 69.3161 56.9645 69.4992 57.2026C70.1896 58.1759 70.6606 59.2875 70.8798 60.4606C71.0989 61.6336 71.061 62.8402 70.7686 63.9972C69.97 66.2354 68.3477 68.0846 66.2326 69.1679C66.0699 69.2702 65.8833 69.3281 65.6912 69.3359Z" fill="black"/>
<path d="M52.7926 29.3332C51.8955 30.0733 51.1692 30.9987 50.6633 32.0458C50.1574 33.093 49.8841 34.2372 49.8619 35.3999C49.7227 39.0776 49.8787 42.7605 50.3286 46.4132C48.8349 45.5535 47.5997 44.3081 46.7525 42.8074C45.9052 41.3066 45.477 39.6056 45.5126 37.8826C45.3026 34.2642 45.7906 30.6392 46.9499 27.2052C46.9499 27.2052 42.3206 28.2132 41.0326 35.9599C39.7446 43.7066 42.5632 56.0266 42.5632 56.0266C40.4989 55.1063 38.7085 53.6662 37.3671 51.8471C36.0257 50.028 35.179 47.892 34.9099 45.6479C34.0276 40.7538 34.3479 35.7187 35.8432 30.9759C33.2745 33.9618 31.7248 37.689 31.4192 41.6159C31.0664 46.429 31.292 51.2671 32.0912 56.0266C32.0912 56.0266 28.1712 48.7092 27.8166 44.6399C27.4619 40.5706 27.3499 40.2719 27.3499 40.2719C27.3499 40.2719 20.6672 48.9706 18.3526 49.0452C16.0379 49.1199 9.98991 42.0826 8.27258 37.8452C6.55524 33.6079 5.26725 31.1439 7.32058 29.4452C10.532 27.3766 14.3937 26.5657 18.1659 27.1679C18.1659 27.1679 23.9899 28.8852 25.8192 29.7812C27.6486 30.6772 28.2272 30.9385 28.3392 30.6959C28.8903 28.7455 30.1051 27.0487 31.7739 25.8985C34.3872 24.2932 36.8139 23.5279 36.8512 23.2852C36.8886 23.0425 33.7712 21.2319 33.9206 21.0639C37.0151 19.0884 40.424 17.6554 44.0006 16.8265C47.6975 16.1453 51.4812 16.076 55.2006 16.6212C55.2006 16.8452 54.0992 20.9705 53.7819 23.1359C53.4646 25.3012 52.7926 29.3332 52.7926 29.3332Z" fill="#CE7A23"/>
<path d="M71.2726 71.7625C71.0736 71.759 70.8784 71.7081 70.703 71.6139C70.5277 71.5198 70.3774 71.3851 70.2646 71.2212C70.0868 70.9537 70.0224 70.6267 70.0854 70.3118C70.1484 69.9969 70.3336 69.7198 70.6006 69.5412C70.8432 69.3732 75.7152 65.9759 73.3632 60.8985C73.2294 60.6037 73.217 60.268 73.3288 59.964C73.4406 59.6601 73.6676 59.4124 73.9606 59.2745C74.2527 59.1415 74.5858 59.1296 74.8866 59.2416C75.1875 59.3535 75.4318 59.5802 75.5659 59.8719C76.4754 61.9229 76.6156 64.233 75.9608 66.3789C75.306 68.5249 73.9001 70.3632 72.0006 71.5572C71.7854 71.7003 71.5308 71.7721 71.2726 71.7625Z" fill="black"/>
<path d="M21.4139 46.1332C21.4139 46.1332 29.0672 42.3999 28.1152 41.0932C27.1632 39.7866 19.3979 36.8932 16.7846 37.3599C16.3397 37.3814 15.9089 37.5231 15.5382 37.77C15.1674 38.0168 14.8705 38.3595 14.679 38.7617C14.4875 39.1638 14.4085 39.6103 14.4506 40.0538C14.4927 40.4972 14.6542 40.9209 14.9179 41.2799C15.6272 42.9412 20.8166 45.9839 21.4139 46.1332Z" fill="#F97FB5"/>
<path d="M18.4832 65.1359C18.0794 65.1322 17.6918 64.9764 17.3978 64.6996C17.1037 64.4228 16.9247 64.0454 16.8966 63.6426C16.8966 63.6426 16.6539 59.4986 16.5419 55.1306C16.5419 52.6665 16.5419 51.0612 16.5419 50.1466C13.8885 48.4476 11.5565 46.2926 9.65391 43.7812C7.07791 39.9546 1.68325 31.9839 6.18191 28.3626C8.2962 26.7943 10.7571 25.7584 13.3565 25.3425C15.9559 24.9266 18.6172 25.1429 21.1152 25.9732C23.1908 26.6294 25.2232 27.4149 27.2006 28.3252C28.0655 26.758 29.279 25.4105 30.7472 24.3866C31.4517 23.8633 32.1873 23.3833 32.9499 22.9492L32.5019 22.7066C32.2845 22.5808 32.1001 22.4052 31.9638 22.1943C31.8275 21.9834 31.7432 21.7431 31.7179 21.4932C31.6879 21.2435 31.7199 20.9902 31.8111 20.7558C31.9022 20.5214 32.0497 20.3131 32.2406 20.1492C35.9636 17.1078 40.5176 15.2602 45.3073 14.8479C52.7739 14.2132 54.9579 14.8479 55.3312 14.8479C55.7267 14.9845 56.0542 15.2684 56.2455 15.6405C56.4367 16.0126 56.477 16.4441 56.3579 16.8452C56.2943 17.0439 56.1922 17.228 56.0574 17.3872C55.9225 17.5463 55.7576 17.6773 55.5721 17.7727C55.3866 17.8681 55.1841 17.9259 54.9762 17.9429C54.7683 17.9599 54.5591 17.9358 54.3606 17.8719C51.4419 17.4967 48.4872 17.4967 45.5686 17.8719C42.2537 18.1927 39.0587 19.279 36.2352 21.0452L37.3926 21.7172C37.6886 21.8823 37.9232 22.1388 38.0612 22.4485C38.1992 22.7581 38.2331 23.104 38.1579 23.4346C38.0835 23.7642 37.9057 24.0615 37.6506 24.2831C37.3954 24.5047 37.0761 24.6391 36.7393 24.6666C35.2323 25.0795 33.8318 25.8116 32.6326 26.8132C31.2148 27.7285 30.1488 29.0971 29.6086 30.6959C29.553 30.9405 29.4415 31.169 29.2828 31.3633C29.1241 31.5576 28.9225 31.7125 28.6939 31.8159C28.4725 31.9219 28.2301 31.9769 27.9846 31.9769C27.7391 31.9769 27.4967 31.9219 27.2752 31.8159C24.9826 30.6414 22.5901 29.6732 20.1259 28.9226C18.1231 28.2636 15.9926 28.0892 13.9093 28.4137C11.826 28.7382 9.84941 29.5524 8.14191 30.7892C7.11525 31.6106 7.00325 34.2239 12.2486 41.9892C14.1247 44.3589 16.3909 46.3916 18.9499 47.9999C19.1994 48.1471 19.402 48.362 19.5341 48.6197C19.6663 48.8775 19.7226 49.1674 19.6966 49.4559C19.6966 49.4559 19.6032 51.1359 19.6966 55.0559C19.8086 59.3865 20.0512 63.4372 20.0512 63.4746C20.0639 63.683 20.0352 63.8919 19.9669 64.0892C19.8987 64.2866 19.7921 64.4685 19.6534 64.6246C19.5146 64.7807 19.3465 64.9078 19.1585 64.9988C18.9705 65.0897 18.7664 65.1426 18.5579 65.1545L18.4832 65.1359Z" fill="black"/>
<path d="M21.0966 47.6452C20.9415 47.6631 20.7849 47.6631 20.6299 47.6452C17.0459 46.5066 11.2966 43.2959 12.7712 38.5359C12.9198 38.0087 13.1871 37.5226 13.5528 37.1149C13.9184 36.7072 14.3726 36.3887 14.8806 36.1839C18.8379 34.5039 27.2192 38.6852 28.8619 39.5439C29.062 39.631 29.2421 39.7585 29.3907 39.9183C29.5393 40.0782 29.6534 40.267 29.7257 40.4729C29.798 40.6789 29.8271 40.8975 29.8111 41.1152C29.7951 41.3329 29.7343 41.545 29.6326 41.7381C29.5309 41.9312 29.3904 42.1013 29.2199 42.2377C29.0495 42.374 28.8527 42.4738 28.642 42.5306C28.4313 42.5875 28.211 42.6002 27.9951 42.5681C27.7792 42.536 27.5723 42.4596 27.3872 42.3439C23.9712 40.4772 18.0539 38.3119 16.1872 39.1146C16.1154 39.1392 16.0506 39.1809 15.9986 39.2362C15.9465 39.2915 15.9088 39.3587 15.8886 39.4319C14.9739 42.2692 21.6006 44.5279 21.6006 44.5466C21.9617 44.6614 22.2699 44.9018 22.4692 45.2242C22.6685 45.5466 22.7458 45.9296 22.6871 46.3041C22.6285 46.6785 22.4377 47.0196 22.1494 47.2656C21.8611 47.5116 21.4942 47.6463 21.1152 47.6452H21.0966Z" fill="black"/>
<path d="M14.3019 73.3306L20.0886 71.6506L23.0006 74.8239L17.3446 78.9866L14.3019 73.3306Z" fill="white"/>
<path d="M45.3819 60.7866L51.0939 58.6959L52.2886 60.1892L46.5579 62.4852L45.3819 60.7866Z" fill="white"/>
<path d="M30.6539 162.576C30.6539 162.576 31.1392 163.491 36.5712 163.192C42.0032 162.893 44.4859 159.701 43.7392 158.507C42.9926 157.312 41.1072 159.029 36.8886 158.637C32.6699 158.245 26.5846 153.56 26.5846 153.56L30.6539 162.576Z" fill="#CE7A23"/>
<path d="M25.2032 148.613C25.2032 148.613 26.8832 152.627 33.1552 153.373C39.4272 154.12 44.8779 152.72 44.4859 149.883C44.0939 147.045 38.0272 149.341 34.0139 148.016C30.0006 146.691 25.2032 140.232 25.2032 140.232C24.9332 143.019 24.9332 145.826 25.2032 148.613Z" fill="#CE7A23"/>
<path d="M68.8646 77.9786C68.8646 77.9786 73.2886 75.9812 69.8726 71.2212C66.4566 66.4612 59.3632 69.4852 60.2032 72.7146C61.0432 75.9439 65.4859 80.4986 68.8646 77.9786Z" fill="#F97FB5"/>
<path d="M32.6886 182.232C29.4406 182.232 27.4059 181.728 27.2006 179.283C26.9952 176.837 26.6406 172.899 28.8806 170.117C29.6601 169.166 30.5153 168.28 31.4379 167.467C28.8992 163.528 21.6006 151.488 23.0192 141.333C24.0086 134.333 29.1979 128.173 33.3792 123.227C36.1606 119.904 38.7926 116.787 38.8486 114.883C38.8486 112.045 39.1659 104.747 38.1766 103.141C29.0299 106.165 22.9819 103.813 19.5099 101.275C17.3076 99.6378 15.5096 97.5181 14.2541 95.0783C12.9986 92.6384 12.3189 89.9433 12.2672 87.1999C12.3792 76.8212 41.2006 64.2025 46.9686 61.7759C61.7152 55.5785 71.0113 54.7012 75.3793 59.0505C76.3889 60.033 77.1852 61.213 77.7183 62.517C78.2515 63.8209 78.5101 65.2208 78.4779 66.6292C78.4779 71.0159 75.7153 75.7759 70.7313 80.3865C62.3312 88.1705 34.5926 98.8105 33.3979 99.2585C33.0043 99.4095 32.5669 99.398 32.1818 99.2265C31.7967 99.0549 31.4956 98.7375 31.3446 98.3439C31.1936 97.9503 31.2051 97.5129 31.3767 97.1278C31.5482 96.7427 31.8657 96.4415 32.2592 96.2905C32.5579 96.1785 60.6139 85.4265 68.5473 78.0532C72.8966 74.0399 75.2112 70.0639 75.2859 66.5732C75.3141 65.5886 75.1341 64.6091 74.7577 63.6988C74.3814 62.7885 73.8172 61.9678 73.1019 61.2905C70.7873 58.9385 64.5339 57.6879 48.1259 64.6132C31.7179 71.5386 15.4219 81.3385 15.3659 87.1999C15.4244 89.4611 15.9959 91.6795 17.0371 93.6877C18.0784 95.6958 19.5622 97.4411 21.3766 98.7919C25.5206 101.816 31.0646 102.283 37.3739 100.136C37.7983 99.9849 38.2532 99.94 38.6989 100.005C39.1447 100.07 39.5677 100.243 39.9312 100.509C42.0406 102.059 42.2832 106.427 42.0219 115.051C42.0219 118.056 39.2219 121.267 35.8059 125.336C31.6806 130.133 27.0326 135.733 26.1739 141.781C24.6619 152.533 34.6672 166.589 34.8539 166.72C35.0976 167.063 35.197 167.488 35.1307 167.903C35.0644 168.318 34.8376 168.691 34.4992 168.941C33.3254 169.863 32.2662 170.922 31.3446 172.096C29.9446 173.851 30.1872 177.061 30.3366 178.891C32.2652 179.116 34.2133 179.116 36.1419 178.891L40.9952 178.704C45.6382 178.805 50.2681 178.175 54.7153 176.837C55.5553 176.539 55.9846 176.408 55.0512 170.341C54.7945 167.853 53.8725 165.48 52.3819 163.472C51.8407 162.698 51.3542 161.887 50.9259 161.045C50.6633 160.504 50.5269 159.911 50.5269 159.309C50.5269 158.708 50.6633 158.114 50.9259 157.573C52.7926 153.243 60.7259 148.576 71.4592 145.421C86.3926 141.072 95.2966 141.333 95.7259 141.352C95.9351 141.357 96.1412 141.403 96.3321 141.489C96.5231 141.574 96.6949 141.697 96.8375 141.851C96.9802 142.004 97.0908 142.184 97.1627 142.38C97.2347 142.577 97.2666 142.786 97.2566 142.995C97.2282 143.411 97.0426 143.8 96.7376 144.084C96.4326 144.369 96.0309 144.526 95.6139 144.525C95.6139 144.525 86.7659 144.264 72.4113 148.464C59.7366 152.197 54.7899 156.752 53.8566 158.861C53.7138 159.096 53.6608 159.374 53.7072 159.645C54.0757 160.352 54.4936 161.032 54.9579 161.68C56.7115 164.088 57.8054 166.913 58.1312 169.875C58.9339 175.083 59.4566 178.536 55.6859 179.843C50.9337 181.294 45.9821 181.987 41.0139 181.896C39.1472 181.896 37.6352 182.008 36.2352 182.083C34.8352 182.157 33.7712 182.232 32.6886 182.232Z" fill="black"/>
<path d="M140.321 178.237C133.825 178.237 127.254 177.491 126.377 174.821C125.908 173.332 125.755 171.762 125.929 170.211C126.11 169.278 126.082 168.317 125.847 167.397C125.611 166.477 125.173 165.621 124.566 164.891C121.523 161.475 116.633 157.424 103.566 153.093C90.4992 148.763 82.5846 146.429 82.5099 146.411C82.1055 146.289 81.7652 146.014 81.5625 145.643C81.3599 145.273 81.3113 144.838 81.4272 144.432C81.485 144.233 81.5817 144.047 81.7118 143.885C81.8419 143.724 82.0028 143.59 82.1851 143.491C82.3674 143.392 82.5675 143.33 82.7738 143.309C82.9802 143.288 83.1887 143.308 83.3872 143.368C83.3872 143.368 91.1712 145.645 104.574 150.069C118.331 154.624 123.595 159.048 126.974 162.763C127.857 163.801 128.507 165.016 128.88 166.327C129.254 167.637 129.342 169.012 129.139 170.36C128.996 171.497 129.079 172.652 129.382 173.757C131.249 175.512 149.915 175.307 153.35 174.187C153.35 174.187 153.63 174.187 153.742 173.571C153.789 172.445 153.602 171.321 153.194 170.271C152.786 169.22 152.166 168.266 151.371 167.467C149.841 166.23 148.512 164.763 147.433 163.117C146.873 162.371 146.163 161.381 145.137 160.037C141.403 155.128 124.454 122.984 118.667 109.357C111.798 93.0052 116.931 83.5225 119.47 80.2185C122.345 76.4852 134.758 70.3999 149.449 63.4185C153.07 61.7199 156.187 60.2452 158.166 59.2185L159.529 58.5279C166.995 54.7945 170.729 52.8159 166.081 43.3146C162.049 35.1386 152.641 38.5919 139.798 44.3412C138.286 45.0132 136.811 45.6852 135.411 46.2079C125.292 50.1652 114.967 53.5737 104.481 56.4185C104.271 56.4971 104.046 56.5302 103.823 56.5157C103.599 56.5012 103.381 56.4395 103.183 56.3346C102.984 56.2297 102.811 56.084 102.673 55.9071C102.535 55.7302 102.437 55.5261 102.383 55.3083C102.33 55.0905 102.324 54.8639 102.365 54.6434C102.406 54.423 102.493 54.2137 102.62 54.0294C102.748 53.845 102.913 53.6898 103.105 53.5739C103.297 53.4581 103.511 53.3842 103.734 53.3572C114.087 50.5908 124.281 47.2632 134.273 43.3892C135.673 42.8105 137.129 42.1572 138.603 41.5225C149.617 36.5945 163.337 30.4346 169.03 41.9706C175.115 54.2906 168.283 57.7626 161.078 61.4399L159.734 62.1306C157.699 63.1759 154.545 64.6506 150.923 66.3679C141.123 70.9786 124.79 78.7066 122.102 82.1786C119.918 85.0532 115.475 93.3786 121.71 108.163C127.31 121.659 144.11 153.355 147.843 158.171C148.87 159.533 149.598 160.523 150.158 161.288C151.098 162.706 152.257 163.966 153.593 165.021C154.812 166.191 155.751 167.621 156.34 169.205C156.928 170.789 157.15 172.486 156.99 174.168C156.892 174.859 156.602 175.508 156.153 176.043C155.704 176.577 155.115 176.976 154.451 177.192C149.778 177.928 145.052 178.278 140.321 178.237Z" fill="black"/>
<path d="M53.2219 32.7492C52.8075 32.7493 52.4095 32.5873 52.113 32.2978C51.8165 32.0082 51.645 31.6142 51.6352 31.1999C51.4672 24.1626 56.3206 8.01589 57.0672 6.59722C57.4966 5.66389 58.8406 4.99189 61.0432 4.56256C64.0686 4.0067 67.1825 4.17349 70.1312 5.04933C73.0798 5.92517 75.7799 7.48529 78.0112 9.60256C86.0192 17.2559 87.0086 30.1359 87.0459 30.7146C87.0414 31.1128 86.8873 31.4947 86.6142 31.7846C86.3411 32.0745 85.969 32.251 85.5717 32.2792C85.1745 32.3074 84.7811 32.1852 84.4698 31.9369C84.1585 31.6885 83.952 31.3321 83.8912 30.9386C83.8912 30.8079 82.9392 18.6932 75.8086 11.8986C73.7323 9.89473 71.1527 8.48978 68.343 7.83255C65.5334 7.17532 62.5982 7.29027 59.8486 8.16522C58.9339 10.6666 54.6592 25.1892 54.8086 31.1999C54.8135 31.4083 54.7774 31.6156 54.7022 31.81C54.627 32.0044 54.5143 32.1821 54.3704 32.3329C54.2265 32.4837 54.0543 32.6047 53.8637 32.6889C53.673 32.7732 53.4676 32.819 53.2592 32.8239L53.2219 32.7492Z" fill="black"/>
</svg>
